<svg xmlns="http://www.w3.org/2000/svg" width="16" height="16" viewBox="0 0 16 16">
  <path fill="#CCC" d="M6.47563143,0 C2.91277709,0 0,2.9127828 0,6.47563137 C0,10.0384742 2.91277709,12.9512704 6.47563143,12.9512704 C7.84783678,12.9512704 9.12165063,12.5195743 10.1717314,11.7847044 L14.0464065,15.6653218 C14.4926346,16.1115499 15.2190671,16.1115689 15.6653143,15.6653218 C16.1115619,15.2190555 16.1115619,14.4926801 15.6653143,14.0464139 L11.7846969,10.1717389 C12.5195668,9.12165816 12.9512629,7.84784433 12.9512629,6.47563137 C12.9512629,2.91277708 10.0384667,0 6.47563143,0 Z M6.47563143,2.28551696 C8.80325907,2.28551696 10.6657459,4.14798472 10.6657459,6.47563137 C10.6657459,8.8032666 8.80325907,10.6657534 6.47563143,10.6657534 C4.14798474,10.6657534 2.28551695,8.8032666 2.28551695,6.47563137 C2.28551695,4.14797901 4.14798474,2.28551696 6.47563143,2.28551696 Z"/>
</svg>
