<svg width="425" height="260" viewBox="0 0 425 260" fill="none" xmlns="http://www.w3.org/2000/svg">
<rect width="425" height="260" rx="8" fill="black" fill-opacity="0.2"/>
<g clip-path="url(#clip0_2712_159)">
<path d="M95.1637 105.066C109.54 105.066 120.823 116.16 120.823 130.038V152.701C120.823 153.327 120.26 153.815 119.703 153.815H114.23C113.668 153.815 113.11 153.398 113.11 152.701V146.703C108.553 152.141 102.104 155 95.0207 155C80.7875 155 69.5 143.91 69.5 130.033C69.5 116.156 80.7875 105.066 95.1637 105.066ZM240.871 105.066C255.233 105.071 266.525 116.16 266.525 130.038V152.701C266.525 153.327 265.963 153.815 265.406 153.815H259.938C259.376 153.815 258.817 153.398 258.817 152.701V146.703C254.26 152.141 247.811 155 240.729 155C226.495 155 215.208 143.91 215.208 130.033C215.207 116.156 226.495 105.066 240.871 105.066ZM329.845 105.066C344.223 105.066 355.5 116.16 355.5 130.038V152.701C355.5 153.327 354.937 153.815 354.379 153.815H348.913C348.35 153.815 347.793 153.398 347.793 152.701V146.703C343.236 152.141 336.787 155 329.703 155C315.469 155 304.183 143.91 304.183 130.033C304.183 116.156 315.469 105.066 329.845 105.066ZM164.013 105C164.643 105 165.205 105.488 165.205 106.185V110.789C165.205 111.415 164.643 111.974 164.013 111.974H142.278C137.792 111.974 134.846 114.97 134.846 118.46C134.846 121.945 137.792 124.457 142.278 124.946L155.391 126.411C163.384 127.316 169.695 132.271 169.695 139.942C169.695 147.684 163.313 153.819 154.552 153.819H129.66C129.031 153.819 128.468 153.331 128.468 152.634V148.03C128.468 147.404 129.031 146.845 129.66 146.845H154.552C159.037 146.845 161.983 143.849 161.983 140.079C161.983 136.31 159.037 133.731 154.552 133.247L141.439 131.782C133.445 130.877 127.134 125.994 127.134 118.531C127.134 111.14 133.516 105 142.278 105H164.013ZM213.305 105.005C214.006 105.005 214.497 105.493 214.497 106.19V110.794C214.497 111.419 214.006 111.979 213.305 111.979H196.827V152.634C196.827 153.331 196.336 153.819 195.635 153.819H190.306C189.605 153.819 189.114 153.331 189.114 152.634V111.979H172.637C171.936 111.979 171.445 111.491 171.445 110.723V106.19C171.445 105.493 171.936 105.005 172.637 105.005H213.305ZM282.159 105.005C282.789 105.005 283.352 105.493 283.352 106.19V112.05C287.627 107.797 293.657 105.285 301.512 105.005C302.213 105.005 302.77 105.493 302.77 106.19V110.931C302.77 111.557 302.281 111.979 301.651 112.046C290.01 112.742 283.352 118.603 283.352 127.459V152.634C283.352 153.331 282.789 153.819 282.159 153.819H276.831C276.13 153.819 275.639 153.331 275.639 152.634V106.19C275.639 105.493 276.13 105.005 276.831 105.005H282.159ZM95.159 112.045C85.2728 112.045 77.2077 120.062 77.2077 130.038C77.2077 140.013 85.2728 148.031 95.159 148.031C105.045 148.031 113.11 140.013 113.11 130.038C113.11 120.067 105.045 112.045 95.159 112.045ZM240.862 112.045C230.976 112.045 222.91 120.062 222.91 130.038C222.91 140.013 230.976 148.031 240.862 148.031C250.748 148.031 258.813 140.013 258.813 130.038C258.813 120.067 250.748 112.045 240.862 112.045ZM329.836 112.045C319.951 112.045 311.884 120.062 311.884 130.038C311.884 140.013 319.951 148.031 329.836 148.031C339.722 148.031 347.787 140.013 347.787 130.038C347.787 120.067 339.722 112.045 329.836 112.045Z" fill="white"/>
</g>
<defs>
<clipPath id="clip0_2712_159">
<rect width="286" height="50" fill="white" transform="translate(69.5 105)"/>
</clipPath>
</defs>
</svg>
