<svg width="425" height="260" viewBox="0 0 425 260" fill="none" xmlns="http://www.w3.org/2000/svg">
<rect width="425" height="260" rx="8" fill="#F2F2F2"/>
<g clip-path="url(#clip0_2712_93)">
<path d="M144.308 106.97C143.755 106.31 143.047 105.785 142.243 105.438C141.475 105.078 140.635 104.884 139.781 104.868C139.366 104.869 138.952 104.904 138.543 104.974C138.146 105.039 137.763 105.172 137.415 105.368C137.082 105.562 136.796 105.82 136.573 106.127C136.326 106.487 136.206 106.913 136.229 107.343C136.217 107.705 136.311 108.063 136.5 108.376C136.704 108.666 136.974 108.906 137.291 109.079C137.681 109.311 138.096 109.502 138.529 109.649C139.005 109.825 139.547 110 140.14 110.183C141.005 110.457 141.906 110.76 142.836 111.097C143.747 111.419 144.605 111.864 145.385 112.419C146.152 112.977 146.797 113.674 147.282 114.472C147.81 115.406 148.063 116.461 148.015 117.523C148.05 118.776 147.774 120.02 147.209 121.15C146.691 122.148 145.939 123.017 145.011 123.688C144.074 124.363 143.013 124.864 141.884 125.164C140.713 125.477 139.502 125.631 138.287 125.621C136.484 125.622 134.695 125.313 133.005 124.708C131.418 124.154 129.981 123.265 128.801 122.106L132.822 118.184C133.5 118.955 134.338 119.583 135.284 120.025C136.222 120.487 137.262 120.728 138.316 120.728C138.762 120.731 139.207 120.684 139.642 120.588C140.043 120.508 140.426 120.358 140.77 120.145C141.081 119.929 141.332 119.645 141.503 119.315C141.708 118.934 141.809 118.508 141.796 118.078C141.807 117.66 141.682 117.25 141.437 116.904C141.157 116.551 140.809 116.252 140.411 116.025C139.889 115.736 139.337 115.5 138.763 115.322C138.104 115.104 137.357 114.872 136.522 114.619C135.707 114.369 134.91 114.071 134.134 113.726C133.372 113.391 132.67 112.943 132.053 112.398C131.432 111.845 130.934 111.178 130.588 110.436C130.192 109.549 130.002 108.589 130.031 107.624C130.012 106.422 130.317 105.235 130.918 104.179C131.473 103.239 132.239 102.427 133.159 101.803C134.119 101.174 135.188 100.714 136.316 100.446C137.477 100.161 138.671 100.017 139.869 100.018C141.368 100.029 142.854 100.284 144.264 100.77C145.719 101.256 147.057 102.019 148.198 103.012L144.308 106.97Z" fill="#000833"/>
<path d="M174.95 125.022L175.089 107.763H174.987L168.394 125.022H164.072L157.648 107.763H157.545L157.684 125.022H151.905V100.635H160.636L166.423 116.27H166.57L172.1 100.635H180.979V125.022H174.95Z" fill="#000833"/>
<path d="M203.482 125.022L201.504 120.235H191.688L189.82 125.022H183.147L193.805 100.635H199.761L210.309 125.022H203.482ZM196.662 107.145L193.432 115.511H199.819L196.662 107.145Z" fill="#000833"/>
<path d="M226.102 125.022L220.586 115.342H218.491V125.022H212.499V100.635H222.19C223.389 100.633 224.585 100.753 225.758 100.993C226.866 101.217 227.923 101.632 228.878 102.217C229.794 102.792 230.549 103.574 231.076 104.494C231.66 105.579 231.942 106.79 231.896 108.009C231.951 109.513 231.456 110.988 230.497 112.178C229.498 113.35 228.144 114.193 226.622 114.59L233.266 125.029L226.102 125.022ZM225.846 108.108C225.873 107.614 225.743 107.123 225.472 106.702C225.225 106.351 224.89 106.066 224.498 105.872C224.079 105.671 223.629 105.538 223.165 105.479C222.68 105.408 222.19 105.373 221.699 105.373H218.418V111.068H221.348C221.868 111.068 222.387 111.029 222.901 110.948C223.409 110.878 223.903 110.733 224.366 110.519C224.834 110.305 225.224 109.96 225.485 109.53C225.746 109.1 225.867 108.604 225.831 108.108H225.846Z" fill="#000833"/>
<path d="M247.235 105.661V125.022H241.097V105.661H233.918V100.635H254.429V105.661H247.235Z" fill="#000833"/>
<path d="M66.5 97.5H75.5466V102.217H72.4188V123.364H75.5466V128.088H66.5V97.5Z" fill="#000833"/>
<path d="M107.272 128.088H98.2256V123.364H101.346V102.217H98.2256V97.5H107.272V128.088Z" fill="#000833"/>
<path d="M148.224 143.919C148.267 145.165 147.985 146.403 147.403 147.518C146.882 148.465 146.127 149.276 145.206 149.88C144.219 150.498 143.125 150.941 141.975 151.188C140.729 151.466 139.453 151.605 138.174 151.603H135.119V160.798H128.98V136.41H138.313C139.623 136.403 140.93 136.535 142.21 136.804C143.337 137.036 144.408 137.471 145.367 138.084C146.265 138.668 146.993 139.461 147.484 140.389C148.021 141.492 148.274 142.702 148.224 143.919V143.919ZM142.085 143.954C142.105 143.463 141.984 142.976 141.734 142.548C141.495 142.183 141.159 141.887 140.759 141.69C140.33 141.474 139.864 141.333 139.382 141.275C138.853 141.204 138.32 141.169 137.785 141.17H135.09V146.921H137.676C138.228 146.923 138.78 146.879 139.324 146.787C139.823 146.705 140.304 146.541 140.745 146.302C141.15 146.083 141.49 145.768 141.734 145.388C141.985 144.95 142.106 144.454 142.085 143.954V143.954Z" fill="#000833"/>
<path d="M164.764 160.798L159.248 151.117H157.146V160.798H151.154V136.41H160.838C162.039 136.408 163.237 136.528 164.412 136.769C165.52 136.995 166.577 137.409 167.533 137.992C168.449 138.567 169.204 139.349 169.731 140.27C170.317 141.354 170.602 142.564 170.558 143.785C170.609 145.288 170.115 146.762 169.159 147.954C168.159 149.124 166.805 149.966 165.284 150.365L171.943 160.798H164.764ZM164.515 143.855C164.544 143.36 164.41 142.868 164.134 142.449C163.891 142.095 163.555 141.809 163.16 141.62C162.742 141.417 162.291 141.284 161.827 141.226C161.356 141.157 160.881 141.122 160.406 141.12H157.146V146.801H160.076C160.594 146.802 161.111 146.762 161.622 146.681C162.131 146.616 162.626 146.471 163.087 146.252C163.517 146.05 163.883 145.742 164.149 145.36C164.424 144.904 164.551 144.38 164.515 143.855V143.855Z" fill="#000833"/>
<path d="M200.834 148.502C200.858 150.313 200.504 152.111 199.794 153.789C199.139 155.341 198.157 156.746 196.907 157.915C195.641 159.066 194.146 159.96 192.512 160.545C190.741 161.164 188.866 161.464 186.982 161.43C185.101 161.45 183.233 161.133 181.473 160.495C179.839 159.91 178.345 159.016 177.078 157.866C175.832 156.705 174.85 155.31 174.192 153.768C173.481 152.09 173.127 150.292 173.152 148.481C173.121 146.669 173.475 144.871 174.192 143.194C174.847 141.675 175.831 140.307 177.078 139.18C178.351 138.056 179.845 137.188 181.473 136.628C183.239 136.019 185.105 135.716 186.982 135.735C188.866 135.717 190.738 136.02 192.512 136.628C194.14 137.188 195.635 138.056 196.907 139.18C198.154 140.307 199.138 141.675 199.794 143.194C200.513 144.877 200.867 146.683 200.834 148.502V148.502ZM194.241 148.502C194.249 147.49 194.065 146.485 193.699 145.535C193.374 144.667 192.876 143.867 192.234 143.18C191.586 142.517 190.803 141.988 189.934 141.626C189.009 141.243 188.011 141.049 187.004 141.057C185.534 141.032 184.093 141.451 182.885 142.254C181.677 143.058 180.763 144.206 180.272 145.535C179.566 147.482 179.566 149.6 180.272 151.546C180.597 152.427 181.094 153.241 181.737 153.943C182.377 154.61 183.152 155.143 184.015 155.511C185.892 156.253 187.998 156.253 189.875 155.511C190.742 155.142 191.521 154.609 192.168 153.943C192.831 153.248 193.344 152.433 193.677 151.546C194.063 150.574 194.264 149.543 194.27 148.502H194.241Z" fill="#000833"/>
<path d="M215.191 141.437V160.798H209.06V141.437H201.881V136.41H222.391V141.437H215.191Z" fill="#000833"/>
<path d="M224.904 160.798V136.41H241.987V141.373H230.823V145.964H241.386V150.681H230.838V155.743H242.631V160.798H224.904Z" fill="#000833"/>
<path d="M264.57 160.362C262.77 161.109 260.824 161.474 258.864 161.431C257.007 161.45 255.163 161.132 253.428 160.496C251.812 159.913 250.338 159.016 249.1 157.861C247.862 156.706 246.887 155.317 246.235 153.782C245.525 152.121 245.171 150.34 245.195 148.545C245.168 146.727 245.527 144.924 246.25 143.244C246.922 141.713 247.92 140.334 249.18 139.195C250.452 138.066 251.946 137.194 253.575 136.629C255.304 136.032 257.129 135.737 258.966 135.757C260.774 135.758 262.567 136.067 264.262 136.671C265.883 137.203 267.337 138.119 268.489 139.335L264.328 143.335C263.756 142.578 262.971 141.993 262.065 141.648C261.156 141.281 260.179 141.092 259.193 141.093C258.186 141.086 257.188 141.279 256.263 141.662C255.388 142.027 254.6 142.56 253.948 143.23C253.267 143.911 252.732 144.713 252.373 145.592C252.01 146.544 251.829 147.552 251.839 148.566C251.831 149.596 252.012 150.619 252.373 151.589C252.696 152.458 253.194 153.259 253.839 153.944C254.477 154.603 255.253 155.126 256.117 155.476C257.043 155.854 258.041 156.043 259.047 156.032C260.155 156.051 261.252 155.81 262.241 155.329C263.106 154.901 263.858 154.287 264.438 153.536L268.709 157.396C267.569 158.66 266.157 159.672 264.57 160.362V160.362Z" fill="#000833"/>
<path d="M283.183 141.437V160.798H277.045V141.437H269.866V136.41H290.377V141.437H283.183Z" fill="#000833"/>
<path d="M292.889 160.798V136.41H299.064V160.798H292.889Z" fill="#000833"/>
<path d="M330.614 148.504C330.638 150.315 330.285 152.112 329.574 153.79C328.92 155.345 327.934 156.75 326.68 157.917C325.416 159.07 323.921 159.965 322.285 160.546C318.722 161.792 314.816 161.792 311.253 160.546C309.619 159.963 308.124 159.069 306.858 157.917C305.61 156.758 304.627 155.362 303.972 153.819C303.252 152.133 302.894 150.325 302.917 148.504C302.887 146.692 303.241 144.893 303.958 143.217C304.61 141.697 305.594 140.328 306.844 139.203C308.115 138.078 309.61 137.21 311.239 136.651C314.812 135.463 318.697 135.463 322.271 136.651C323.9 137.208 325.395 138.076 326.666 139.203C327.917 140.328 328.904 141.696 329.559 143.217C330.281 144.892 330.64 146.691 330.614 148.504V148.504ZM324.021 148.504C324.031 147.492 323.85 146.487 323.487 145.537C323.161 144.668 322.664 143.869 322.022 143.182C321.374 142.518 320.591 141.989 319.721 141.628C318.797 141.245 317.799 141.051 316.791 141.059C315.813 141.041 314.843 141.22 313.941 141.583C313.039 141.946 312.226 142.486 311.554 143.168C310.902 143.848 310.403 144.65 310.089 145.523C309.383 147.469 309.383 149.587 310.089 151.534C310.411 152.416 310.908 153.231 311.554 153.931C312.193 154.598 312.969 155.131 313.832 155.499C315.196 156.086 316.718 156.251 318.184 155.97C319.651 155.689 320.989 154.976 322.014 153.931C322.677 153.235 323.19 152.42 323.523 151.534C323.882 150.561 324.058 149.535 324.043 148.504H324.021Z" fill="#000833"/>
<path d="M350.612 160.799L340.357 144.847H340.276L340.415 160.799H334.46V136.411H341.456L351.66 152.292H351.762L351.623 136.383H357.578V160.799H350.612Z" fill="#000833"/>
</g>
<defs>
<clipPath id="clip0_2712_93">
<rect width="292" height="65" fill="white" transform="translate(66.5 97.5)"/>
</clipPath>
</defs>
</svg>
