<svg fill="none" height="512" viewBox="0 0 512 512" width="512" xmlns="http://www.w3.org/2000/svg"><rect fill="#f9f9f9" height="512" rx="24" width="512"/><path d="m347.651 121 2.806 68.622h-5.051c-3.493-14.959-8.233-26.676-14.221-35.152-5.862-8.602-14.22-14.834-25.072-18.699-10.728-3.864-25.135-6.295-43.222-7.292l-32.744-1.309v122.473l43.596-1.309c8.732-.374 15.468-1.87 20.208-4.488 4.74-2.742 8.295-6.856 10.665-12.34 2.495-5.61 4.678-12.964 6.549-22.064h4.677v86.572h-4.677c-1.747-9.1-3.867-16.392-6.362-21.877-2.37-5.609-5.925-9.723-10.665-12.341-4.74-2.742-11.538-4.3-20.395-4.674l-43.596-1.309v129.017l40.789-1.87c13.846-.623 25.572-2.119 35.177-4.488 9.605-2.368 17.463-6.045 23.575-11.032 6.237-4.986 11.352-11.655 15.343-20.006 3.992-8.352 7.36-18.886 10.104-31.6h4.865l-3.181 75.166h-205.819v-5.422c6.736-1.247 11.85-2.68 15.343-4.301 3.493-1.745 5.863-4.176 7.11-7.292 1.247-3.241 1.871-7.666 1.871-13.276v-209.418c0-5.61-.624-9.972-1.871-13.089-1.247-3.241-3.617-5.734-7.11-7.479s-8.607-3.179-15.343-4.301v-5.422z" fill="#000"/></svg>