<svg width="425" height="260" viewBox="0 0 425 260" fill="none" xmlns="http://www.w3.org/2000/svg">
<rect width="425" height="260" rx="8" fill="#1A1A1A"/>
<g clip-path="url(#clip0_2712_145)">
<path d="M71.4542 164C52.728 164 37.5 148.752 37.5 130C37.5 111.248 52.7508 96 71.4542 96C80.5315 96 89.083 99.5488 95.5079 105.982C96.6283 107.104 96.6283 108.913 95.5079 110.012C94.3875 111.134 92.5813 111.134 91.4837 110.012C86.1334 104.655 79.0452 101.701 71.477 101.701C55.9062 101.701 43.2162 114.385 43.2162 130C43.2162 145.615 55.8832 158.299 71.4542 158.299C79.0224 158.299 86.1105 155.346 91.4609 149.988C92.5813 148.866 94.3875 148.866 95.4851 149.988C96.6054 151.11 96.6054 152.919 95.4851 154.017C89.083 160.474 80.5544 164 71.4542 164Z" fill="white"/>
<path d="M71.1109 152.895C58.5123 152.895 48.2461 142.638 48.2461 129.999C48.2461 117.361 58.4895 107.104 71.1109 107.104C77.2157 107.104 82.9777 109.485 87.2992 113.835C88.4195 114.957 88.4195 116.765 87.2992 117.864C86.1788 118.986 84.3724 118.986 83.2749 117.864C80.0281 114.613 75.7296 112.827 71.1337 112.827C61.6677 112.827 53.9852 120.52 53.9852 129.999C53.9852 139.478 61.6677 147.171 71.1337 147.171C75.7296 147.171 80.0281 145.385 83.2749 142.134C84.3954 141.012 86.2016 141.012 87.2992 142.134C88.4195 143.256 88.4195 145.064 87.2992 146.163C82.9777 150.514 77.2157 152.895 71.1109 152.895Z" fill="white"/>
<path d="M71.065 142.181C64.3655 142.181 58.9009 136.732 58.9009 130.001C58.9009 123.292 64.3427 117.82 71.065 117.82C74.3117 117.82 77.3756 119.08 79.6621 121.392C80.7825 122.514 80.7825 124.323 79.6621 125.422C78.5417 126.544 76.7355 126.544 75.6379 125.422C74.4261 124.208 72.8027 123.521 71.065 123.521C67.4981 123.521 64.6171 126.429 64.6171 129.978C64.6171 133.55 67.5209 136.434 71.065 136.434C72.7799 136.434 74.4033 135.771 75.6379 134.534C76.7583 133.412 78.5647 133.412 79.6621 134.534C80.7825 135.656 80.7825 137.465 79.6621 138.564C77.3756 140.899 74.3117 142.181 71.065 142.181Z" fill="white"/>
<path d="M168.4 140.188H156.007V118.368C156.007 116.949 154.841 115.781 153.424 115.781C152.006 115.781 150.84 116.949 150.84 118.368V142.34C150.84 143.325 151.412 144.195 152.235 144.63C152.578 144.836 152.989 144.95 153.446 144.95H168.4C169.726 144.95 170.778 143.874 170.778 142.569C170.778 141.241 169.703 140.188 168.4 140.188Z" fill="white"/>
<path d="M255.882 115.668C254.464 115.668 253.298 116.836 253.298 118.255V142.662C253.298 144.081 254.464 145.249 255.882 145.249C257.299 145.249 258.466 144.081 258.466 142.662V118.255C258.466 116.836 257.299 115.668 255.882 115.668Z" fill="white"/>
<path d="M384.61 115.668C383.192 115.668 382.026 116.836 382.026 118.255V142.662C382.026 144.081 383.192 145.249 384.61 145.249C386.028 145.249 387.194 144.081 387.194 142.662V118.255C387.194 116.836 386.051 115.668 384.61 115.668Z" fill="white"/>
<path d="M292.053 115.92H271.909C270.606 115.92 269.554 116.973 269.554 118.278C269.554 119.583 270.606 120.636 271.909 120.636H279.386V142.639C279.386 144.059 280.552 145.226 281.97 145.226C283.388 145.226 284.554 144.059 284.554 142.639V120.636H292.03C293.333 120.636 294.385 119.583 294.385 118.278C294.385 116.973 293.356 115.92 292.053 115.92Z" fill="white"/>
<path d="M194.741 117.246C194.581 116.903 194.33 116.605 194.055 116.376C193.895 116.239 193.712 116.102 193.507 116.01C192.226 115.392 190.671 115.941 190.053 117.224L178.415 141.401C177.799 142.683 178.347 144.24 179.627 144.859C179.993 145.042 180.382 145.11 180.748 145.11C181.708 145.11 182.622 144.561 183.08 143.645L185.366 138.883H199.543L201.852 143.691C202.287 144.607 203.2 145.133 204.138 145.133C204.504 145.133 204.87 145.042 205.236 144.881C206.494 144.263 207.019 142.752 206.425 141.493L194.741 117.246ZM187.744 133.937L192.454 124.161L197.164 133.937H187.744Z" fill="white"/>
<path d="M361.791 117.246C361.631 116.903 361.379 116.605 361.105 116.376C360.945 116.239 360.763 116.102 360.556 116.01C359.275 115.392 357.721 115.941 357.104 117.224L345.465 141.401C344.848 142.683 345.397 144.24 346.678 144.859C347.043 145.042 347.431 145.11 347.798 145.11C348.757 145.11 349.672 144.561 350.13 143.645L352.416 138.883H366.593L368.902 143.691C369.336 144.607 370.251 145.133 371.188 145.133C371.554 145.133 371.92 145.042 372.286 144.881C373.543 144.263 374.07 142.752 373.475 141.493L361.791 117.246ZM354.795 133.937L359.505 124.161L364.215 133.937H354.795Z" fill="white"/>
<path d="M327.151 116.149C326.008 115.302 324.384 115.531 323.539 116.676L323.081 117.294C320.36 120.911 317.571 124.643 314.895 128.421C312.198 124.643 309.431 120.911 306.71 117.294L306.252 116.676C305.384 115.531 303.783 115.302 302.64 116.149C301.497 117.019 301.268 118.622 302.113 119.767L302.571 120.385C305.818 124.712 309.179 129.2 312.311 133.733V142.731C312.311 144.15 313.478 145.318 314.895 145.318C316.313 145.318 317.479 144.15 317.479 142.731V133.71C320.612 129.2 323.972 124.712 327.219 120.385L327.676 119.767C328.522 118.622 328.294 116.996 327.151 116.149Z" fill="white"/>
<path d="M240.63 125.008C240.63 119.971 236.538 115.85 231.484 115.85H217.856C216.438 115.85 215.272 117.017 215.272 118.437V118.803V131.579V142.477C215.272 143.897 216.438 145.064 217.856 145.064C219.274 145.064 220.44 143.897 220.44 142.477V134.166H230.18L234.708 143.576C235.142 144.469 236.011 144.973 236.949 144.973C237.314 144.973 237.681 144.904 238.024 144.721C239.258 144.126 239.761 142.637 239.19 141.424L235.303 133.342C238.435 131.899 240.63 128.694 240.63 125.008ZM231.484 128.992H220.44V121.047H231.484C233.679 121.047 235.463 122.833 235.463 125.031C235.463 127.206 233.679 128.992 231.484 128.992Z" fill="white"/>
<path d="M138.63 134.853C137.418 134.075 135.818 134.441 135.063 135.632C134.926 135.838 134.789 136.044 134.629 136.25L134.446 136.479C132.617 138.768 129.873 140.073 126.946 140.073C121.642 140.073 117.343 135.769 117.343 130.457C117.343 125.145 121.642 120.841 126.946 120.841C129.987 120.841 132.777 122.238 134.606 124.665C135.475 125.809 137.098 126.015 138.219 125.168C139.362 124.298 139.591 122.673 138.722 121.551C135.909 117.819 131.611 115.689 126.946 115.689C118.807 115.689 112.176 122.329 112.176 130.48C112.176 138.631 118.807 145.271 126.946 145.271C131.451 145.271 135.658 143.256 138.493 139.707C138.493 139.684 138.516 139.684 138.516 139.661L138.722 139.386C138.95 139.089 139.179 138.745 139.385 138.425C140.185 137.234 139.819 135.632 138.63 134.853Z" fill="white"/>
</g>
<defs>
<clipPath id="clip0_2712_145">
<rect width="350" height="68" fill="white" transform="translate(37.5 96)"/>
</clipPath>
</defs>
</svg>
