<svg width="425" height="260" viewBox="0 0 425 260" fill="none" xmlns="http://www.w3.org/2000/svg">
<rect width="425" height="260" rx="8" fill="black" fill-opacity="0.2"/>
<path d="M108.553 147.321C109.904 147.321 111.082 147.215 112.089 147.001C113.096 146.788 113.971 146.514 114.712 146.177C115.454 145.841 116.09 145.488 116.621 145.118C117.153 144.747 117.617 144.394 118.016 144.058C118.414 143.721 118.768 143.447 119.078 143.234C119.388 143.021 119.698 142.914 120.008 142.914C120.273 142.914 120.495 142.97 120.672 143.082C120.849 143.194 120.993 143.307 121.103 143.419L124.125 147.22C122.044 149.642 119.598 151.498 116.787 152.788C113.976 154.077 110.745 154.722 107.093 154.722C104.149 154.722 101.526 154.19 99.224 153.124C96.922 152.059 94.9742 150.584 93.3806 148.7C91.7869 146.816 90.5751 144.585 89.745 142.006C88.915 139.427 88.5 136.612 88.5 133.562C88.5 130.758 88.7988 128.106 89.3964 125.605C89.9941 123.105 90.8462 120.795 91.9529 118.675C93.0596 116.556 94.3877 114.655 95.937 112.973C97.4864 111.291 99.2018 109.856 101.083 108.667C102.965 107.478 104.995 106.57 107.176 105.942C109.356 105.314 111.63 105 113.998 105C115.747 105 117.341 105.163 118.779 105.488C120.218 105.813 121.524 106.267 122.697 106.85C123.87 107.433 124.922 108.134 125.851 108.953C126.781 109.771 127.622 110.685 128.375 111.695L125.386 115.328C125.165 115.597 124.905 115.833 124.606 116.034C124.307 116.236 123.937 116.337 123.494 116.337C123.007 116.337 122.542 116.135 122.1 115.732C121.657 115.328 121.098 114.885 120.423 114.403C119.748 113.921 118.873 113.478 117.8 113.074C116.726 112.67 115.315 112.468 113.567 112.468C111.265 112.468 109.129 112.945 107.159 113.898C105.189 114.851 103.474 116.214 102.013 117.986C100.552 119.757 99.4066 121.894 98.5765 124.394C97.7465 126.895 97.3315 129.704 97.3315 132.822C97.3315 135.087 97.6137 137.116 98.1781 138.911C98.7425 140.705 99.5228 142.224 100.519 143.469C101.515 144.714 102.699 145.667 104.071 146.329C105.444 146.99 106.938 147.321 108.553 147.321Z" fill="white"/>
<path d="M151.377 105C154.442 105 157.196 105.549 159.64 106.648C162.083 107.747 164.159 109.262 165.869 111.19C167.579 113.119 168.89 115.401 169.801 118.036C170.711 120.671 171.167 123.525 171.167 126.598C171.167 129.289 170.873 131.852 170.284 134.285C169.696 136.718 168.851 138.978 167.752 141.063C166.653 143.149 165.331 145.034 163.787 146.716C162.244 148.398 160.511 149.833 158.59 151.021C156.669 152.21 154.586 153.124 152.343 153.764C150.1 154.403 147.745 154.723 145.28 154.723C142.215 154.723 139.461 154.173 137.018 153.074C134.574 151.975 132.492 150.461 130.771 148.532C129.049 146.604 127.734 144.327 126.823 141.703C125.913 139.079 125.457 136.231 125.457 133.158C125.457 130.467 125.751 127.904 126.34 125.471C126.928 123.037 127.773 120.778 128.872 118.692C129.972 116.607 131.293 114.722 132.837 113.04C134.38 111.358 136.113 109.918 138.034 108.718C139.955 107.518 142.037 106.598 144.28 105.959C146.524 105.32 148.889 105 151.377 105ZM150.311 112.199C147.912 112.199 145.73 112.693 143.765 113.68C141.799 114.667 140.116 116.068 138.717 117.885C137.318 119.701 136.235 121.888 135.469 124.444C134.702 127.001 134.319 129.839 134.319 132.956C134.319 135.154 134.586 137.15 135.119 138.944C135.652 140.739 136.429 142.269 137.451 143.536C138.473 144.803 139.722 145.779 141.199 146.463C142.676 147.147 144.358 147.489 146.246 147.489C148.667 147.489 150.866 146.996 152.843 146.009C154.819 145.022 156.508 143.632 157.907 141.838C159.306 140.044 160.389 137.874 161.155 135.328C161.922 132.783 162.305 129.94 162.305 126.8C162.305 124.602 162.032 122.606 161.488 120.812C160.944 119.017 160.156 117.481 159.123 116.203C158.09 114.925 156.83 113.937 155.342 113.242C153.854 112.547 152.176 112.199 150.311 112.199Z" fill="white"/>
<path d="M174.718 105C177.783 105 180.537 105.549 182.98 106.648C185.424 107.747 187.5 109.262 189.21 111.19C190.92 113.119 192.231 115.401 193.142 118.036C194.052 120.671 194.508 123.525 194.508 126.598C194.508 129.289 194.214 131.852 193.625 134.285C193.036 136.718 192.192 138.978 191.093 141.063C189.993 143.149 188.672 145.034 187.128 146.716C185.584 148.398 183.852 149.833 181.931 151.021C180.009 152.21 177.927 153.124 175.684 153.764C173.44 154.403 171.086 154.723 168.621 154.723C165.556 154.723 162.802 154.173 160.358 153.074C157.915 151.975 155.833 150.461 154.111 148.532C152.39 146.604 151.075 144.327 150.164 141.703C149.253 139.079 148.798 136.231 148.798 133.158C148.798 130.467 149.092 127.904 149.681 125.471C150.269 123.037 151.114 120.778 152.213 118.692C153.312 116.607 154.634 114.722 156.178 113.04C157.721 111.358 159.454 109.918 161.375 108.718C163.296 107.518 165.378 106.598 167.621 105.959C169.864 105.32 172.23 105 174.718 105ZM173.651 112.199C171.253 112.199 169.071 112.693 167.105 113.68C165.14 114.667 163.457 116.068 162.058 117.885C160.658 119.701 159.576 121.888 158.81 124.444C158.043 127.001 157.66 129.839 157.66 132.956C157.66 135.154 157.927 137.15 158.46 138.944C158.993 140.739 159.77 142.269 160.792 143.536C161.814 144.803 163.063 145.779 164.54 146.463C166.017 147.147 167.699 147.489 169.587 147.489C172.008 147.489 174.207 146.996 176.184 146.009C178.16 145.022 179.849 143.632 181.248 141.838C182.647 140.044 183.73 137.874 184.496 135.328C185.262 132.783 185.646 129.94 185.646 126.8C185.646 124.602 185.373 122.606 184.829 120.812C184.285 119.017 183.497 117.481 182.464 116.203C181.431 114.925 180.171 113.937 178.683 113.242C177.194 112.547 175.517 112.199 173.651 112.199Z" fill="white"/>
<path d="M194.508 105H201.56C202.344 105 202.972 105.189 203.444 105.567C203.917 105.946 204.199 106.433 204.291 107.029L208.682 137.529C208.797 138.263 208.872 139.054 208.906 139.902C208.941 140.75 208.981 141.644 209.027 142.584C209.627 140.704 210.237 139.019 210.86 137.529L223.305 107.029C223.512 106.524 223.91 106.06 224.498 105.636C225.085 105.212 225.748 105 226.486 105H228.56C229.343 105 229.977 105.189 230.461 105.567C230.945 105.946 231.245 106.433 231.36 107.029L236.338 137.529C236.453 138.263 236.563 139.042 236.667 139.867C236.77 140.693 236.845 141.552 236.891 142.446C237.145 141.552 237.398 140.687 237.652 139.85C237.905 139.014 238.17 138.24 238.447 137.529L250.305 107.029C250.512 106.502 250.921 106.032 251.532 105.619C252.143 105.206 252.817 105 253.554 105H260.641L240.21 154.722H232.086L226.451 120.267C226.382 119.832 226.307 119.356 226.226 118.84C226.146 118.325 226.082 117.78 226.036 117.207C225.852 117.78 225.662 118.325 225.466 118.84C225.27 119.356 225.08 119.832 224.895 120.267L210.756 154.722H202.666L194.508 105Z" fill="white"/>
<path d="M278.243 105C281.151 105 283.641 105.304 285.712 105.911C287.782 106.519 289.481 107.367 290.807 108.456C292.133 109.545 293.11 110.845 293.738 112.358C294.366 113.871 294.681 115.534 294.681 117.345C294.681 119.27 294.407 121.076 293.86 122.761C293.314 124.445 292.528 125.975 291.505 127.351C290.481 128.726 289.224 129.93 287.735 130.962C286.247 131.993 284.56 132.795 282.676 133.368C283.211 133.689 283.7 134.08 284.142 134.538C284.583 134.996 284.967 135.547 285.293 136.188L294.297 154.723H286.165C285.397 154.723 284.752 154.567 284.229 154.258C283.705 153.948 283.315 153.507 283.06 152.935L275.661 136.807C275.382 136.211 275.039 135.781 274.632 135.518C274.225 135.254 273.59 135.122 272.729 135.122H269.17L266.728 154.723H257.724L263.9 105H278.243ZM269.973 128.761H275.207C277.022 128.761 278.587 128.503 279.901 127.987C281.216 127.472 282.297 126.761 283.146 125.855C283.996 124.95 284.63 123.89 285.049 122.675C285.468 121.46 285.677 120.153 285.677 118.755C285.677 116.6 285.002 114.914 283.652 113.699C282.303 112.485 280.221 111.877 277.406 111.877H272.102L269.973 128.761Z" fill="white"/>
<path d="M315.853 135.363L313.415 154.722H304.363L306.8 135.328L293.708 105H301.751C302.54 105 303.144 105.189 303.562 105.567C303.98 105.946 304.304 106.433 304.537 107.029L311.048 124.222C311.373 125.047 311.634 125.855 311.831 126.646C312.028 127.437 312.197 128.211 312.336 128.967C312.707 128.211 313.108 127.443 313.537 126.663C313.967 125.884 314.448 125.07 314.982 124.222L325.811 107.029C326.136 106.502 326.559 106.032 327.082 105.619C327.604 105.206 328.248 105 329.014 105H336.5L315.853 135.363Z" fill="white"/>
</svg>
