<svg width="425" height="260" viewBox="0 0 425 260" fill="none" xmlns="http://www.w3.org/2000/svg">
<rect width="425" height="260" rx="8" fill="#181818"/>
<g filter="url(#filter0_d_2712_208)">
<ellipse cx="316.413" cy="130.744" rx="44.7826" ry="48.0661" fill="#98C800"/>
<ellipse cx="316.413" cy="130.744" rx="44.7826" ry="48.0661" fill="url(#paint0_linear_2712_208)" fill-opacity="0.35" style="mix-blend-mode:darken"/>
</g>
<g filter="url(#filter1_i_2712_208)">
<ellipse cx="316.413" cy="126.051" rx="44.7826" ry="44.8617" fill="#98C800"/>
</g>
<path fill-rule="evenodd" clip-rule="evenodd" d="M295.391 135.163C298.769 143.675 306.945 150.275 316.503 150.275C326.061 150.275 334.237 143.675 337.615 135.163H295.391V135.163V135.163V135.163ZM293.651 111.404C293.651 114.621 296.287 117.209 299.538 117.209C302.8 117.209 305.436 114.62 305.436 111.404C305.436 108.2 302.799 105.598 299.538 105.598C296.287 105.598 293.651 108.2 293.651 111.404C293.651 111.404 293.651 108.2 293.651 111.404V111.404V111.404ZM327.392 111.404C327.392 114.621 330.028 117.209 333.289 117.209C336.553 117.209 339.188 114.62 339.188 111.404C339.188 108.2 336.552 105.598 333.289 105.598C330.028 105.598 327.392 108.2 327.392 111.404C327.392 111.404 327.392 108.2 327.392 111.404V111.404V111.404Z" fill="#010101" fill-opacity="0.35"/>
<g filter="url(#filter2_d_2712_208)">
<ellipse cx="211.196" cy="130.744" rx="44.7826" ry="48.0661" fill="#FDD043"/>
<ellipse cx="211.196" cy="130.744" rx="44.7826" ry="48.0661" fill="url(#paint1_linear_2712_208)" fill-opacity="0.35" style="mix-blend-mode:darken"/>
</g>
<g filter="url(#filter3_i_2712_208)">
<ellipse cx="211.196" cy="126.051" rx="44.7826" ry="44.8617" fill="#FDD043"/>
</g>
<path fill-rule="evenodd" clip-rule="evenodd" d="M188.587 111.343C188.587 114.561 191.223 117.149 194.486 117.149C197.736 117.149 200.384 114.559 200.384 111.343C200.384 108.139 197.736 105.537 194.486 105.537C191.223 105.537 188.587 108.139 188.587 111.343C188.587 111.343 188.587 108.139 188.587 111.343V111.343V111.343ZM222.328 111.343C222.328 114.561 224.977 117.149 228.225 117.149C231.489 117.149 234.124 114.559 234.124 111.343C234.124 108.139 231.488 105.537 228.225 105.537C224.977 105.537 222.328 108.139 222.328 111.343C222.328 111.343 222.328 108.139 222.328 111.343V111.343V111.343ZM200.239 137.713C198.601 137.713 197.283 138.584 197.283 140.186C197.283 141.789 198.601 142.84 200.239 142.84H221.862C223.488 142.84 224.805 141.789 224.805 140.186C224.805 138.584 223.488 137.713 221.862 137.713H200.239V137.713V137.713V137.713Z" fill="#010101" fill-opacity="0.35"/>
<g filter="url(#filter4_d_2712_208)">
<ellipse cx="108.587" cy="130.744" rx="44.7826" ry="48.0661" fill="#D53900"/>
<ellipse cx="108.587" cy="130.744" rx="44.7826" ry="48.0661" fill="url(#paint2_linear_2712_208)" fill-opacity="0.35" style="mix-blend-mode:darken"/>
</g>
<g filter="url(#filter5_i_2712_208)">
<ellipse cx="108.587" cy="126.051" rx="44.7826" ry="44.8617" fill="#D53900"/>
</g>
<path fill-rule="evenodd" clip-rule="evenodd" d="M86.2467 112.505C86.2467 115.71 88.8825 117.208 92.1452 117.208C95.4079 117.208 98.0437 115.708 98.0437 112.505C98.0437 111.441 97.7494 110.454 97.2504 109.596H87.04C86.541 110.454 86.2467 111.441 86.2467 112.505C86.2467 112.505 86.2467 111.441 86.2467 112.505V112.505V112.505ZM120 112.505C120 115.71 122.636 117.208 125.899 117.208C129.149 117.208 131.784 115.708 131.784 112.505C131.784 111.441 131.503 110.454 131.004 109.596H120.781C120.282 110.454 120 111.441 120 112.505C120 112.505 120 111.441 120 112.505V112.505V112.505ZM108.472 129.594C97.7627 129.594 88.5759 136.003 84.635 145.143C84.3791 145.603 84.2256 146.13 84.2256 146.693C84.2256 148.476 85.697 149.924 87.5139 149.924C88.6271 149.924 89.5995 149.372 90.2009 148.54L90.3032 148.604C92.9902 141.285 100.117 136.056 108.472 136.056C116.661 136.056 123.66 141.067 126.488 148.144L126.513 148.131C127.038 149.194 128.164 149.924 129.443 149.924C131.26 149.924 132.719 148.476 132.719 146.693C132.719 146.039 132.514 145.411 132.169 144.9L132.207 144.886C128.215 135.888 119.092 129.594 108.472 129.594C108.472 129.594 119.092 129.594 108.472 129.594V129.594V129.594Z" fill="#010101" fill-opacity="0.35"/>
<defs>
<filter id="filter0_d_2712_208" x="267.631" y="79.6777" width="97.5654" height="104.133" filterUnits="userSpaceOnUse" color-interpolation-filters="sRGB">
<feFlood flood-opacity="0" result="BackgroundImageFix"/>
<feColorMatrix in="SourceAlpha" type="matrix" values="0 0 0 0 0 0 0 0 0 0 0 0 0 0 0 0 0 0 127 0" result="hardAlpha"/>
<feOffset dy="1"/>
<feGaussianBlur stdDeviation="2"/>
<feColorMatrix type="matrix" values="0 0 0 0 0 0 0 0 0 0 0 0 0 0 0 0 0 0 0.35 0"/>
<feBlend mode="normal" in2="BackgroundImageFix" result="effect1_dropShadow_2712_208"/>
<feBlend mode="normal" in="SourceGraphic" in2="effect1_dropShadow_2712_208" result="shape"/>
</filter>
<filter id="filter1_i_2712_208" x="271.631" y="81.1895" width="89.5654" height="89.7227" filterUnits="userSpaceOnUse" color-interpolation-filters="sRGB">
<feFlood flood-opacity="0" result="BackgroundImageFix"/>
<feBlend mode="normal" in="SourceGraphic" in2="BackgroundImageFix" result="shape"/>
<feColorMatrix in="SourceAlpha" type="matrix" values="0 0 0 0 0 0 0 0 0 0 0 0 0 0 0 0 0 0 127 0" result="hardAlpha"/>
<feOffset dy="-1"/>
<feComposite in2="hardAlpha" operator="arithmetic" k2="-1" k3="1"/>
<feColorMatrix type="matrix" values="0 0 0 0 1 0 0 0 0 1 0 0 0 0 1 0 0 0 0.2 0"/>
<feBlend mode="normal" in2="shape" result="effect1_innerShadow_2712_208"/>
</filter>
<filter id="filter2_d_2712_208" x="162.414" y="79.6777" width="97.5649" height="104.133" filterUnits="userSpaceOnUse" color-interpolation-filters="sRGB">
<feFlood flood-opacity="0" result="BackgroundImageFix"/>
<feColorMatrix in="SourceAlpha" type="matrix" values="0 0 0 0 0 0 0 0 0 0 0 0 0 0 0 0 0 0 127 0" result="hardAlpha"/>
<feOffset dy="1"/>
<feGaussianBlur stdDeviation="2"/>
<feColorMatrix type="matrix" values="0 0 0 0 0 0 0 0 0 0 0 0 0 0 0 0 0 0 0.35 0"/>
<feBlend mode="normal" in2="BackgroundImageFix" result="effect1_dropShadow_2712_208"/>
<feBlend mode="normal" in="SourceGraphic" in2="effect1_dropShadow_2712_208" result="shape"/>
</filter>
<filter id="filter3_i_2712_208" x="166.414" y="81.1895" width="89.5649" height="89.7227" filterUnits="userSpaceOnUse" color-interpolation-filters="sRGB">
<feFlood flood-opacity="0" result="BackgroundImageFix"/>
<feBlend mode="normal" in="SourceGraphic" in2="BackgroundImageFix" result="shape"/>
<feColorMatrix in="SourceAlpha" type="matrix" values="0 0 0 0 0 0 0 0 0 0 0 0 0 0 0 0 0 0 127 0" result="hardAlpha"/>
<feOffset dy="-1"/>
<feComposite in2="hardAlpha" operator="arithmetic" k2="-1" k3="1"/>
<feColorMatrix type="matrix" values="0 0 0 0 1 0 0 0 0 1 0 0 0 0 1 0 0 0 0.2 0"/>
<feBlend mode="normal" in2="shape" result="effect1_innerShadow_2712_208"/>
</filter>
<filter id="filter4_d_2712_208" x="59.8047" y="79.6777" width="97.5654" height="104.133" filterUnits="userSpaceOnUse" color-interpolation-filters="sRGB">
<feFlood flood-opacity="0" result="BackgroundImageFix"/>
<feColorMatrix in="SourceAlpha" type="matrix" values="0 0 0 0 0 0 0 0 0 0 0 0 0 0 0 0 0 0 127 0" result="hardAlpha"/>
<feOffset dy="1"/>
<feGaussianBlur stdDeviation="2"/>
<feColorMatrix type="matrix" values="0 0 0 0 0 0 0 0 0 0 0 0 0 0 0 0 0 0 0.35 0"/>
<feBlend mode="normal" in2="BackgroundImageFix" result="effect1_dropShadow_2712_208"/>
<feBlend mode="normal" in="SourceGraphic" in2="effect1_dropShadow_2712_208" result="shape"/>
</filter>
<filter id="filter5_i_2712_208" x="63.8047" y="81.1895" width="89.5654" height="89.7227" filterUnits="userSpaceOnUse" color-interpolation-filters="sRGB">
<feFlood flood-opacity="0" result="BackgroundImageFix"/>
<feBlend mode="normal" in="SourceGraphic" in2="BackgroundImageFix" result="shape"/>
<feColorMatrix in="SourceAlpha" type="matrix" values="0 0 0 0 0 0 0 0 0 0 0 0 0 0 0 0 0 0 127 0" result="hardAlpha"/>
<feOffset dy="-1"/>
<feComposite in2="hardAlpha" operator="arithmetic" k2="-1" k3="1"/>
<feColorMatrix type="matrix" values="0 0 0 0 1 0 0 0 0 1 0 0 0 0 1 0 0 0 0.2 0"/>
<feBlend mode="normal" in2="shape" result="effect1_innerShadow_2712_208"/>
</filter>
<linearGradient id="paint0_linear_2712_208" x1="271.631" y1="82.6777" x2="271.631" y2="178.81" gradientUnits="userSpaceOnUse">
<stop stop-color="white"/>
<stop offset="1" stop-opacity="0.5"/>
</linearGradient>
<linearGradient id="paint1_linear_2712_208" x1="166.414" y1="82.6777" x2="166.414" y2="178.81" gradientUnits="userSpaceOnUse">
<stop stop-color="white"/>
<stop offset="1" stop-opacity="0.5"/>
</linearGradient>
<linearGradient id="paint2_linear_2712_208" x1="63.8047" y1="82.6777" x2="63.8047" y2="178.81" gradientUnits="userSpaceOnUse">
<stop stop-color="white"/>
<stop offset="1" stop-opacity="0.5"/>
</linearGradient>
</defs>
</svg>
