<svg width="425" height="260" viewBox="0 0 425 260" fill="none" xmlns="http://www.w3.org/2000/svg">
<rect width="425" height="260" rx="8" fill="#1B1B1B"/>
<g clip-path="url(#clip0_2712_84)">
<path d="M149.655 129.906C149.655 114.01 159.22 102.221 174.882 102.221C186.129 102.221 193.382 107.589 196.85 115.379L188.336 119.695C186.024 114.221 181.609 110.747 174.672 110.747C165.002 110.747 159.115 118.116 159.115 129.906C159.115 141.801 165.737 148.959 175.933 148.959C183.606 148.959 190.124 144.538 190.649 135.274H171.834V127.169H199.268V156.433H191.069V148.854C188.231 154.222 182.555 157.591 174.462 157.591C159.326 157.486 149.655 145.801 149.655 129.906Z" fill="white"/>
<path d="M204.522 136.959C204.522 125.064 212.09 116.537 224.074 116.537C235.005 116.537 242.888 124.537 242.888 135.801C242.888 137.485 242.783 139.169 242.678 140.012H213.247C214.193 145.906 218.293 149.696 223.863 149.696C228.277 149.696 230.8 147.591 232.377 144.854L239.945 149.275C235.951 155.801 230.065 157.591 223.863 157.591C212.512 157.486 204.522 149.275 204.522 136.959ZM234.164 133.169C233.533 128.432 229.96 124.222 223.758 124.222C217.871 124.222 214.403 127.801 213.352 133.169H234.164Z" fill="white"/>
<path d="M248.248 103.379H256.762V156.433H248.248V103.379Z" fill="white"/>
<path d="M261.071 145.275C261.071 136.748 268.534 133.169 276.523 133.169H287.034V131.485C287.034 126.748 283.775 124.327 279.15 124.327C274.63 124.327 272.003 126.853 270.742 129.59L263.069 124.853C265.801 120.116 271.267 116.537 278.94 116.537C289.135 116.537 295.548 122.222 295.548 130.327V146.222C295.548 148.328 296.283 149.064 298.596 149.064H299.121V156.328H295.758C291.448 156.328 289.03 154.854 288.295 151.486C286.297 154.854 282.093 157.275 275.996 157.275C268.429 157.275 261.071 154.012 261.071 145.275ZM277.153 150.117C281.883 150.117 287.034 148.012 287.034 141.38V139.906H277.468C272.213 139.906 269.795 141.906 269.795 144.959C269.69 148.012 272.633 150.117 277.153 150.117Z" fill="white"/>
<path d="M305.956 146.012V124.959H298.704V117.8H305.956V103.379H314.471V117.8H324.772V124.959H314.471V144.749C314.471 148.117 315.626 149.17 319.41 149.17H324.772V156.328H317.097C309.845 156.433 305.956 153.065 305.956 146.012Z" fill="white"/>
<path d="M326.663 137.064C326.663 124.222 335.177 116.537 346.635 116.537C358.092 116.537 366.5 124.222 366.5 137.064C366.5 149.907 357.987 157.591 346.635 157.591C335.177 157.591 326.663 149.907 326.663 137.064ZM346.635 149.801C353.466 149.801 357.881 144.854 357.881 137.064C357.881 129.38 353.466 124.327 346.635 124.327C339.802 124.327 335.282 129.38 335.282 137.064C335.282 144.854 339.907 149.801 346.635 149.801Z" fill="white"/>
<path d="M114.021 103.378L110.237 107.168L106.453 110.958L100.777 105.273L95.1009 99.5888C94.0498 98.5361 92.6834 98.0098 91.422 98.0098C90.0556 98.0098 88.6892 98.5361 87.7431 99.5888L80.07 107.273L72.3969 114.958C71.3458 116.01 70.8202 117.379 70.8202 118.642C70.8202 120.01 71.3458 121.379 72.3969 122.326L81.8569 131.8L91.317 141.274L98.8849 133.695L106.453 126.116L108.345 128.011L110.237 129.905L100.777 139.379L91.317 148.853L79.965 137.485L68.613 126.116C67.5618 125.063 66.1954 124.537 64.8289 124.537C63.4625 124.537 62.096 125.063 61.0449 126.116C59.9938 127.169 59.4683 128.537 59.4683 129.905C59.4683 131.274 59.9938 132.642 61.0449 133.695L74.2889 146.959L87.5329 160.222C88.584 161.275 89.9506 161.801 91.2118 161.801C92.5784 161.801 93.9448 161.275 94.8907 160.222L108.24 146.853L121.589 133.484C122.64 132.432 123.166 131.063 123.166 129.8C123.166 128.432 122.64 127.063 121.589 126.116L117.805 122.326L114.021 118.537L117.805 114.747L121.589 110.958C122.64 109.905 123.166 108.536 123.166 107.168C123.166 105.799 122.64 104.431 121.589 103.378C120.538 102.326 119.172 101.799 117.805 101.799C116.439 101.799 115.072 102.326 114.021 103.378ZM91.317 126.116L87.5329 122.326L83.7489 118.537L87.5329 114.747L91.317 110.958L95.1009 114.747L98.8849 118.537L95.1009 122.326L91.317 126.116Z" fill="white"/>
</g>
<defs>
<clipPath id="clip0_2712_84">
<rect width="308" height="65" fill="white" transform="translate(58.5 97.5)"/>
</clipPath>
</defs>
</svg>
