<svg width="425" height="260" viewBox="0 0 425 260" fill="none" xmlns="http://www.w3.org/2000/svg">
<rect width="425" height="260" rx="8" fill="#F2F2F2"/>
<path d="M243.184 157.793C232.816 157.793 224.248 149.585 224.248 139.001C224.248 128.417 232.816 120.209 243.184 120.209C253.552 120.209 262.12 128.417 262.12 139.001C262.12 149.585 253.552 157.793 243.184 157.793ZM243.184 147.641C247.72 147.641 251.176 144.113 251.176 139.001C251.176 133.889 247.72 130.361 243.184 130.361C238.648 130.361 235.192 133.889 235.192 139.001C235.192 144.113 238.648 147.641 243.184 147.641Z" fill="#151515"/>
<path d="M213.621 157.432C205.629 157.432 199.149 152.968 199.149 143.824V130.432H191.949V121H199.149V110.992H210.021V121H220.101V130.432H210.021V141.592C210.021 145.912 211.821 147.712 216.141 147.712C217.797 147.712 218.949 147.496 220.101 147.064V156.712C218.517 157.144 216.501 157.432 213.621 157.432Z" fill="#151515"/>
<path d="M180.832 116.104C177.16 116.104 174.064 113.08 174.064 109.336C174.064 105.592 177.16 102.568 180.832 102.568C184.648 102.568 187.672 105.592 187.672 109.336C187.672 113.08 184.648 116.104 180.832 116.104ZM175.432 157V121H186.304V157H175.432Z" fill="#151515"/>
<path d="M132.12 157V103H142.992V124.672C144.72 122.224 148.32 120.208 153 120.208C161.856 120.208 166.968 126.76 166.968 136.192V157H156.096V138.064C156.096 133.096 154.152 130.072 150.264 130.072C146.16 130.072 142.992 133.024 142.992 139.504V157H132.12Z" fill="#151515"/>
<path fill-rule="evenodd" clip-rule="evenodd" d="M261.904 105.435C262.535 105.435 265.055 106.38 270.095 108.27C269.78 105.75 269.78 103.859 269.78 102.599C269.78 99.1336 275.136 99.1336 275.136 102.599V107.64C279.861 107.01 282.696 106.695 283.956 106.695C286.792 106.695 287.737 111.106 284.271 111.736C282.696 112.051 280.491 112.366 277.026 112.996C278.601 114.256 283.326 119.297 283.326 121.503C283.326 123.708 280.176 124.968 278.601 123.078C277.341 121.503 275.451 118.982 272.615 116.147C268.52 120.557 266 122.763 264.425 122.763C262.219 122.763 260.959 120.242 262.85 118.352C264.11 117.092 265.685 115.516 268.205 113.311C266.63 112.681 264.11 111.736 261.274 110.476C258.124 109.215 259.699 105.435 261.904 105.435Z" fill="#151515"/>
</svg>
