<?xml version="1.0" encoding="UTF-8"?>
<svg width="179px" height="36px" viewBox="0 0 179 36" version="1.1" xmlns="http://www.w3.org/2000/svg" xmlns:xlink="http://www.w3.org/1999/xlink">
    <!-- Generator: Sketch 46.2 (44496) - http://www.bohemiancoding.com/sketch -->
    <title>logo / black@3x</title>
    <desc>Created with Sketch.</desc>
    <defs></defs>
    <g id="Page-1" stroke="none" stroke-width="1" fill="none" fill-rule="evenodd">
        <g id="logo-/-black" fill-rule="nonzero" fill="#777">
            <g>
                <path d="M14.4740687,30.4711766 C15.448597,30.4711766 16.2992994,30.3944746 17.0262017,30.2410684 C17.7531039,30.0876621 18.3841414,29.8898517 18.9193332,29.6476313 C19.4545249,29.4054109 19.9138244,29.1510833 20.2972453,28.8846408 C20.6806663,28.6181983 21.0161546,28.3638707 21.3037203,28.1216503 C21.591286,27.8794299 21.8468962,27.6816195 22.0705584,27.5282132 C22.2942206,27.374807 22.5178795,27.298105 22.7415417,27.298105 C22.9332522,27.298105 23.0930085,27.3384744 23.2208155,27.4192146 C23.3486225,27.4999547 23.4524641,27.5806936 23.5323435,27.6614338 L25.7130393,30.3985109 C24.2113072,32.1424979 22.4459997,33.4787272 20.4170638,34.4072388 C18.3881279,35.3357504 16.0556854,35.7999992 13.4196663,35.7999992 C11.2948752,35.7999992 9.40176265,35.4164893 7.74027183,34.649458 C6.07878102,33.8824267 4.67292529,32.8207098 3.52266241,31.4642754 C2.37239955,30.107841 1.49773361,28.5011364 0.898638369,26.6441131 C0.299543129,24.7870899 0,22.7605427 0,20.5644109 C0,18.5459074 0.215671052,16.6364317 0.647019626,14.8359266 C1.0783682,13.0354215 1.69343009,11.3721996 2.49222375,9.84621087 C3.2910174,8.32022222 4.24955542,6.9516974 5.36786655,5.74059527 C6.48617764,4.52949318 7.72428925,3.49603488 9.08223847,2.64018939 C10.4401877,1.7843439 11.9059521,1.13035857 13.4795756,0.678213787 C15.0531991,0.226069002 16.6946954,0 18.4041138,0 C19.6662078,0 20.8164534,0.117071447 21.8548852,0.351217856 C22.8933169,0.585364263 23.8358793,0.912356924 24.6826006,1.33220566 C25.5293218,1.75205439 26.2881645,2.25667269 26.9591511,2.84607572 C27.6301378,3.43547874 28.2372119,4.09350103 28.7803915,4.82016227 L26.6236595,7.43612975 C26.4639007,7.62990609 26.2761871,7.79945784 26.0605128,7.9447901 C25.8448385,8.09012235 25.5772466,8.16278737 25.2577291,8.16278737 C24.9062599,8.16278737 24.5707716,8.0174573 24.2512542,7.72679279 C23.9317367,7.43612831 23.528352,7.11720953 23.0410878,6.77002691 C22.5538237,6.42284432 21.9227862,6.10392554 21.1479563,5.81326103 C20.3731265,5.52259655 19.3546798,5.37726648 18.0925859,5.37726648 C16.4310951,5.37726648 14.8894464,5.7204069 13.4675937,6.40669812 C12.045741,7.0929893 10.8076294,8.07396728 9.75322178,9.34966151 C8.69881416,10.6253557 7.87207511,12.1634323 7.27297987,13.9639375 C6.67388463,15.7644426 6.37434152,17.7869528 6.37434152,20.0315287 C6.37434152,21.6624795 6.57803083,23.1238541 6.9854156,24.4156964 C7.39280037,25.7075386 7.95594143,26.8015511 8.67485573,27.6977667 C9.39377004,28.5939822 10.2484664,29.2802631 11.2389706,29.7566299 C12.2294747,30.2329968 13.30783,30.4711766 14.4740687,30.4711766 Z" id="C"></path>
                <path d="M59.6666654,15.5504733 C59.6666654,17.4882366 59.4542546,19.3331212 59.0294265,21.0851822 C58.6045983,22.8372433 57.9954195,24.4641327 57.2018725,25.9658993 C56.4083256,27.4676659 55.4544801,28.8240799 54.3403079,30.035182 C53.2261356,31.2462842 51.9757166,32.2797424 50.5890132,33.1355879 C49.2023098,33.9914334 47.6994022,34.6494557 46.0802454,35.1096745 C44.461089,35.5698933 42.7618012,35.7999992 40.9823321,35.7999992 C38.7700189,35.7999992 36.7821733,35.4043785 35.0187354,34.6131251 C33.2552974,33.8218717 31.7523899,32.7318962 30.5099677,31.3431658 C29.2675454,29.9544354 28.3177079,28.3154351 27.6604265,26.4261158 C27.003145,24.5367965 26.6745092,22.4860277 26.6745092,20.2737479 C26.6745092,18.3359845 26.8869202,16.4911 27.3117484,14.7390389 C27.7365766,12.9869779 28.3457552,11.3600885 29.1393022,9.85832186 C29.9328494,8.35655522 30.8866947,7.00014123 32.0008668,5.7890391 C33.115039,4.57793701 34.3654581,3.54044177 35.7521616,2.67652227 C37.1388652,1.81260277 38.6417725,1.15054355 40.2609292,0.690324748 C41.880086,0.230105948 43.5873891,0 45.3828894,0 C47.5952026,0 49.5830481,0.395620755 51.3464862,1.18687413 C53.109924,1.9781275 54.608824,3.06810305 55.8432307,4.45683345 C57.0776371,5.84556387 58.0234669,7.48860108 58.6807485,9.3859944 C59.3380296,11.2833877 59.6666654,13.3381934 59.6666654,15.5504733 Z M53.270227,15.6958048 C53.270227,14.1132981 53.0738472,12.6761451 52.6810815,11.3843029 C52.2883159,10.0924606 51.7192148,8.98633731 50.9737613,8.06589969 C50.2283082,7.14546211 49.3185481,6.43495952 48.2444541,5.93437066 C47.17036,5.43378179 45.9600183,5.1834911 44.6133931,5.1834911 C42.8820175,5.1834911 41.3069707,5.53874239 39.8882043,6.24925562 C38.4694384,6.95976885 37.2550891,7.96900546 36.2451202,9.27699576 C35.2351512,10.584986 34.4536392,12.1593951 33.900561,14.0002703 C33.3474827,15.8411455 33.0709477,17.8838404 33.0709477,20.1284163 C33.0709477,21.7109231 33.2633199,23.1480761 33.64807,24.4399183 C34.0328201,25.7317605 34.5939056,26.8338469 35.3313433,27.7462105 C36.0687809,28.6585741 36.9705255,29.3610028 38.0366039,29.8535176 C39.1026823,30.3460325 40.3170316,30.5922862 41.6796881,30.5922862 C43.427095,30.5922862 45.0141655,30.2370349 46.440947,29.5265217 C47.8677286,28.8160085 49.0860855,27.8148457 50.0960545,26.5230035 C51.1060235,25.2311613 51.8875357,23.668863 52.440614,21.8360618 C52.9936919,20.0032606 53.270227,17.9565287 53.270227,15.6958048 Z" id="O"></path>
                <path d="M76.5137239,15.5504733 C76.5137239,17.4882366 76.3013127,19.3331212 75.8764846,21.0851822 C75.4516564,22.8372433 74.8424779,24.4641327 74.0489307,25.9658993 C73.2553837,27.4676659 72.3015383,28.8240799 71.1873664,30.035182 C70.0731942,31.2462842 68.8227751,32.2797424 67.4360717,33.1355879 C66.049368,33.9914334 64.5464604,34.6494557 62.927304,35.1096745 C61.3081473,35.5698933 59.6088598,35.7999992 57.8293904,35.7999992 C55.6170776,35.7999992 53.6292318,35.4043785 51.8657941,34.6131251 C50.1023559,33.8218718 48.5994483,32.7318962 47.3570263,31.3431658 C46.114604,29.9544354 45.1647665,28.3154351 44.507485,26.4261158 C43.8502034,24.5367965 43.5215677,22.4860277 43.5215677,20.2737479 C43.5215677,18.3359845 43.7339788,16.4911 44.158807,14.7390389 C44.5836352,12.9869779 45.1928136,11.3600885 45.9863609,9.85832186 C46.7799078,8.35655525 47.7337533,7.00014123 48.8479255,5.78903913 C49.9620974,4.577937 51.2125164,3.54044177 52.5992202,2.67652227 C53.9859236,1.81260277 55.4888312,1.15054355 57.1079879,0.690324749 C58.7271443,0.230105949 60.4344474,0 62.2299477,0 C64.4422609,0 66.4301066,0.395620752 68.1935444,1.18687413 C69.9569825,1.9781275 71.4558821,3.06810305 72.6902889,4.45683348 C73.9246952,5.8455639 74.870525,7.48860108 75.5278066,9.38599439 C76.1850881,11.2833877 76.5137239,13.3381934 76.5137239,15.5504733 Z M70.1172855,15.6958048 C70.1172855,14.1132981 69.9209053,12.6761451 69.5281397,11.3843029 C69.135374,10.0924606 68.566273,8.9863373 67.8208199,8.06589968 C67.0753664,7.1454621 66.1656064,6.43495952 65.0915123,5.93437065 C64.0174182,5.43378178 62.8070769,5.1834911 61.4604514,5.1834911 C59.7290761,5.1834911 58.154029,5.53874239 56.735263,6.24925561 C55.3164971,6.95976884 54.1021479,7.96900549 53.0921788,9.27699575 C52.0822098,10.584986 51.3006977,12.1593951 50.7476194,14.0002703 C50.1945411,15.8411455 49.9180064,17.8838404 49.9180064,20.1284163 C49.9180064,21.7109231 50.1103782,23.1480761 50.4951286,24.4399183 C50.8798786,25.7317606 51.440964,26.8338469 52.1784019,27.7462105 C52.9158394,28.6585741 53.8175841,29.3610028 54.8836622,29.8535176 C55.9497407,30.3460325 57.1640899,30.5922862 58.5267468,30.5922862 C60.2741533,30.5922862 61.8612237,30.2370349 63.2880053,29.5265217 C64.7147868,28.8160085 65.9331441,27.8148458 66.9431131,26.5230035 C67.9530821,25.2311613 68.7345939,23.668863 69.2876722,21.8360618 C69.8407505,20.0032606 70.1172855,17.9565287 70.1172855,15.6958048 Z" id="O"></path>
                <path d="M76.5137239,0 L81.6039486,0 C82.1695321,0 82.6228235,0.136167377 82.9638371,0.408506216 C83.3048504,0.680845054 83.5086237,1.03157921 83.5751629,1.46071919 L86.7440775,23.421023 C86.8272514,23.9491953 86.8813137,24.5186225 86.9062658,25.1293217 C86.9312183,25.7400209 86.9603285,26.3837213 86.9935983,27.060442 C87.4261032,25.7070005 87.8669188,24.493873 88.3160585,23.421023 L97.2988077,1.46071919 C97.448521,1.09760075 97.7354671,0.763371727 98.1596547,0.458022121 C98.5838423,0.152672514 99.0620858,0 99.5943995,0 L101.091524,0 C101.657108,0 102.114558,0.136167377 102.463889,0.408506216 C102.81322,0.680845054 103.029469,1.03157921 103.112643,1.46071919 L106.705743,23.421023 C106.788917,23.9491953 106.867931,24.51037 106.942787,25.1045638 C107.017644,25.6987576 107.071707,26.3177003 107.104976,26.9614102 C107.287959,26.3177003 107.470939,25.6946313 107.653922,25.0921848 C107.836905,24.4897383 108.028202,23.93269 108.22782,23.421023 L116.786383,1.46071919 C116.936097,1.08109536 117.23136,0.74274006 117.672182,0.445643146 C118.113005,0.148546229 118.599566,0 119.131879,0 L124.247056,0 L109.500376,35.7999992 L103.636636,35.7999992 L99.5694474,10.9925309 C99.5195429,10.6789286 99.4654806,10.336447 99.4072587,9.96507587 C99.3490368,9.59370472 99.3032919,9.20170773 99.2700225,8.78907311 C99.1369439,9.20170773 98.9997088,9.59370472 98.8583129,9.96507587 C98.7169171,10.336447 98.5796819,10.6789286 98.4466038,10.9925309 L88.2412023,35.7999992 L82.4024151,35.7999992 L76.5137239,0 Z" id="W"></path>
                <path d="M130.402967,21.6879663 L128.63978,35.7999992 L122.141174,35.7999992 L126.59952,0 L136.951949,0 C139.050993,0 140.847747,0.21869306 142.342266,0.656085739 C143.836785,1.09347842 145.062608,1.70416847 146.019772,2.48817422 C146.976935,3.27217997 147.682203,4.20884647 148.135597,5.29820184 C148.58899,6.38755718 148.815683,7.58417957 148.815683,8.88810494 C148.815683,10.2745572 148.618376,11.5743367 148.223756,12.7874824 C147.829136,14.0006282 147.262403,15.102346 146.523539,16.0926691 C145.784676,17.0829922 144.877903,17.9495118 143.803193,18.6922541 C142.728483,19.4349964 141.511056,20.0126762 140.150876,20.4253108 C140.5371,20.6563862 140.889734,20.9369735 141.208788,21.2670812 C141.527843,21.5971888 141.804912,21.9933121 142.040005,22.4554629 L148.538611,35.7999992 L142.669715,35.7999992 C142.115568,35.7999992 141.649587,35.6885896 141.271759,35.4657669 C140.893932,35.2429442 140.612664,34.9252203 140.427948,34.5125857 L135.088008,22.901106 C134.8865,22.4719661 134.638817,22.1624947 134.344951,21.9726828 C134.051085,21.7828709 133.5935,21.6879663 132.972183,21.6879663 L130.402967,21.6879663 Z M132.518792,4.9515905 L130.9823,17.1077451 L134.760559,17.1077451 C136.070362,17.1077451 137.199631,16.9220624 138.148398,16.5506912 C139.097166,16.1793201 139.877998,15.6676608 140.490919,15.0156982 C141.10384,14.3637355 141.561424,13.6003729 141.863686,12.7255876 C142.165949,11.8508022 142.317077,10.9100094 142.317077,9.90318097 C142.317077,8.35167488 141.830107,7.13854734 140.856151,6.26376196 C139.882195,5.38897661 138.379302,4.9515905 136.347428,4.9515905 L132.518792,4.9515905 Z" id="R"></path>
                <path d="M164.097181,21.861272 L162.337995,35.7999992 L155.803877,35.7999992 L157.563062,21.8365141 L148.113722,0 L153.919035,0 C154.488679,0 154.924282,0.136167377 155.225859,0.408506216 C155.527435,0.680845054 155.761991,1.03157921 155.929533,1.46071919 L160.629072,13.8396954 C160.863631,14.4338893 161.052113,15.0156953 161.194524,15.5851311 C161.336935,16.1545668 161.458401,16.7116152 161.558927,17.2562928 C161.826995,16.7116152 162.116001,16.1586931 162.425954,15.59751 C162.735908,15.036327 163.083553,14.4503946 163.4689,13.8396954 L171.284711,1.46071919 C171.51927,1.08109536 171.82503,0.74274006 172.202,0.445643146 C172.578971,0.148546229 173.043893,0 173.596783,0 L178.999996,0 L164.097181,21.861272 Z" id="Y"></path>
            </g>
        </g>
    </g>
</svg>