<svg xmlns="http://www.w3.org/2000/svg" width="112" height="32" style="background:#15b301" viewBox="0 0 112 32">
  <g fill="#FFF" transform="translate(4 6)">
    <path d="M8.48964462,17.8726153 C9.06124608,17.8726153 9.56021854,17.8276264 9.98657701,17.7376472 C10.4129355,17.647668 10.7830653,17.531644 11.0969776,17.3895716 C11.4108898,17.2474992 11.6802881,17.0983255 11.9051805,16.9420459 C12.1300728,16.7857663 12.3268507,16.6365925 12.49552,16.4945201 C12.6641893,16.3524478 12.8141153,16.2364237 12.9453025,16.1464446 C13.0764897,16.0564654 13.207675,16.0114765 13.3388622,16.0114765 C13.4513084,16.0114765 13.5450121,16.0351548 13.6199762,16.0825123 C13.6949404,16.1298698 13.7558478,16.1772265 13.8027004,16.224584 L15.0817694,17.8299938 C14.2009409,18.8529149 13.1655145,19.636669 11.975459,20.1812798 C10.7854035,20.7258906 9.41732876,20.9981919 7.8711937,20.9981919 C6.62491513,20.9981919 5.5145257,20.7732473 4.53999208,20.3233515 C3.56545846,19.8734556 2.74086547,19.2507144 2.06618835,18.4551091 C1.39151123,17.6595038 0.878483197,16.7171045 0.527088863,15.627883 C0.175694531,14.5386615 0,13.3500071 0,12.0618842 C0,10.8779478 0.126500062,9.7579607 0.379503981,8.7018894 C0.632507901,7.64581808 0.993267338,6.67026908 1.46179312,5.77521311 C1.93031889,4.88015716 2.49254139,4.0774603 3.14847749,3.36709842 C3.80441356,2.65673656 4.53061763,2.05057019 5.32711145,1.54858113 C6.12360527,1.04659208 6.98333718,0.663002422 7.90633297,0.397800657 C8.82932873,0.132598893 9.79213476,0 10.7947799,0 C11.5350507,0 12.2097176,0.068667284 12.8188012,0.206003913 C13.4278847,0.343340541 13.9807368,0.535135367 14.4773741,0.78139415 C14.9740114,1.02765293 15.4191043,1.3236326 15.8126659,1.66934205 C16.2062276,2.01505149 16.5623018,2.40100899 16.8808993,2.8272261 L15.6158861,4.36160007 C15.5221809,4.47525797 15.412079,4.57470714 15.2855771,4.65995057 C15.1590751,4.74519399 15.0021213,4.78781506 14.814711,4.78781506 C14.6085596,4.78781506 14.4117818,4.70257291 14.2243715,4.53208606 C14.0369612,4.36159923 13.8003592,4.17454007 13.5145585,3.97090299 C13.2287577,3.76726593 12.8586279,3.58020677 12.4041579,3.40971992 C11.9496879,3.23923309 11.3523265,3.15399094 10.6120558,3.15399094 C9.63752218,3.15399094 8.73328099,3.3552571 7.8993051,3.7577955 C7.06532923,4.16033389 6.33912516,4.73571837 5.72067113,5.48396621 C5.10221711,6.23221406 4.61730019,7.13436008 4.26590586,8.1904314 C3.91451153,9.24650272 3.73881701,10.4327892 3.73881701,11.7493266 C3.73881701,12.7059472 3.85828929,13.5631044 4.09723744,14.3208237 C4.33618558,15.078543 4.66649129,15.7202269 5.0881645,16.2458947 C5.5098377,16.7715625 6.01115277,17.1740949 6.59212473,17.4535039 C7.17309669,17.7329129 7.805597,17.8726153 8.48964462,17.8726153 Z"/>
    <path d="M34.9969864,9.12100079 C34.9969864,10.2575798 34.8723987,11.3396815 34.6232192,12.3673383 C34.3740398,13.3949951 34.016731,14.3492336 33.5512827,15.2300823 C33.0858343,16.110931 32.5263642,16.9065244 31.8728557,17.6168863 C31.2193473,18.3272481 30.4859243,18.9334145 29.672565,19.4354036 C28.8592056,19.9373926 27.9776877,20.3233501 27.0279848,20.5932876 C26.078282,20.8632251 25.0815789,20.9981919 24.0378461,20.9981919 C22.7402322,20.9981919 21.5742779,20.7661438 20.539948,20.3020407 C19.5056181,19.8379376 18.6241002,19.1986215 17.8953678,18.3840733 C17.1666354,17.569525 16.6095161,16.608183 16.2239931,15.5000185 C15.8384702,14.391854 15.6457116,13.1889926 15.6457116,11.8913982 C15.6457116,10.7548192 15.7702994,9.67271755 16.0194789,8.64506073 C16.2686584,7.61740389 16.625967,6.66316543 17.0914154,5.78231671 C17.5568639,4.90146797 18.1163339,4.10587463 18.7698423,3.39551275 C19.4233508,2.68515088 20.1567737,2.07661668 20.9701331,1.56989188 C21.7834926,1.06316708 22.6650103,0.674841752 23.6147133,0.404904241 C24.5644162,0.134966731 25.5658206,0 26.6189564,0 C27.9165703,0 29.0825245,0.232048064 30.1168545,0.69615115 C31.1511843,1.16025424 32.0303516,1.79957033 32.7543826,2.6141186 C33.4784134,3.42866688 34.033182,4.39237669 34.4187051,5.50527696 C34.8042279,6.61817721 34.9969864,7.82340645 34.9969864,9.12100079 Z M31.2452087,9.2062438 C31.2452087,8.27803762 31.1300237,7.4350875 30.8996503,6.67736818 C30.6692769,5.91964885 30.3354754,5.27086142 29.8982358,4.73098639 C29.4609965,4.19111138 28.9273843,3.774372 28.2973833,3.48075576 C27.6673824,3.18713952 26.9574666,3.0403336 26.1676147,3.0403336 C25.1520908,3.0403336 24.2282601,3.24870329 23.3960946,3.66544892 C22.5639292,4.08219454 21.8516627,4.67415388 21.2592738,5.44134472 C20.6668849,6.20853553 20.2084956,7.13199211 19.8840921,8.21174215 C19.5596887,9.29149219 19.3974894,10.4896179 19.3974894,11.8061552 C19.3974894,12.7343614 19.5103237,13.5773115 19.7359956,14.3350309 C19.9616676,15.0927502 20.2907676,15.7391698 20.7233056,16.274309 C21.1558435,16.8094483 21.6847543,17.221452 22.3100537,17.5103325 C22.9353532,17.799213 23.6476196,17.9436511 24.4468745,17.9436511 C25.4718015,17.9436511 26.4026844,17.7352814 27.2395513,17.3185358 C28.0764182,16.9017901 28.7910353,16.3145665 29.3834242,15.5568472 C29.9758131,14.7991278 30.4342026,13.8827748 30.7586061,12.8077605 C31.0830093,11.7327462 31.2452087,10.5322526 31.2452087,9.2062438 Z"/>
    <path d="M44.8784885 9.12100079C44.8784885 10.2575798 44.7539005 11.3396815 44.5047211 12.3673383 44.2555416 13.3949951 43.8982331 14.3492336 43.4327845 15.2300823 42.9673362 16.1109311 42.4078661 16.9065244 41.7543578 17.6168863 41.1008493 18.3272481 40.3674264 18.9334145 39.5540671 19.4354036 38.7407075 19.9373926 37.8591896 20.3233501 36.9094869 20.5932876 35.959784 20.8632251 34.9630811 20.9981919 33.9193481 20.9981919 32.6217344 20.9981919 31.45578 20.7661438 30.4214502 20.3020407 29.3871202 19.8379376 28.5056023 19.1986215 27.77687 18.3840733 27.0481375 17.569525 26.4910182 16.608183 26.1054952 15.5000185 25.7199722 14.391854 25.5272136 13.1889926 25.5272136 11.8913982 25.5272136 10.7548192 25.6518016 9.67271755 25.900981 8.64506073 26.1501605 7.61740389 26.507469 6.66316542 26.9729176 5.78231671 27.4383659 4.90146799 27.9978361 4.10587463 28.6513445 3.39551276 29.3048528 2.68515088 30.0382757 2.07661668 30.8516352 1.56989188 31.6649946 1.06316708 32.5465125.674841751 33.4962154.404904241 34.4459181.134966731 35.4473226 0 36.5004583 0 37.7980722 0 38.9640266.232048063 39.9983564.696151151 41.0326864 1.16025424 41.9118535 1.79957033 42.6358845 2.61411862 43.3599153 3.42866689 43.9146839 4.39237669 44.3002069 5.50527696 44.6857299 6.61817723 44.8784885 7.82340645 44.8784885 9.12100079zM41.1267108 9.2062438C41.1267108 8.27803762 41.0115256 7.4350875 40.7811522 6.67736817 40.5507787 5.91964887 40.2169773 5.27086142 39.7797379 4.73098639 39.3424984 4.19111138 38.8088862 3.774372 38.1788853 3.48075576 37.5488843 3.18713952 36.8389687 3.0403336 36.0491167 3.0403336 35.0335929 3.0403336 34.1097621 3.24870329 33.2775967 3.66544892 32.4454314 4.08219454 31.7331649 4.6741539 31.140776 5.44134472 30.5483871 6.20853553 30.0899976 7.13199211 29.7655942 8.21174215 29.4411907 9.29149219 29.2789916 10.4896179 29.2789916 11.8061552 29.2789916 12.7343614 29.3918257 13.5773115 29.6174978 14.3350309 29.8431697 15.0927502 30.1722697 15.7391698 30.6048077 16.274309 31.0373456 16.8094483 31.5662565 17.221452 32.1915557 17.5103325 32.8168551 17.799213 33.5291216 17.9436511 34.3283766 17.9436511 35.3533034 17.9436511 36.2841864 17.7352814 37.1210532 17.3185358 37.9579201 16.9017901 38.6725374 16.3145665 39.2649263 15.5568472 39.8573152 14.7991278 40.3157045 13.8827748 40.6401079 12.8077605 40.9645114 11.7327462 41.1267108 10.5322526 41.1267108 9.2062438zM44.8784885 0L47.8641175 0C48.1958557 0 48.4617301.0798678427 48.6617488.239605924 48.8617673.399344005 48.9812888.605064205 49.0203168.856772697L50.8790173 13.7374063C50.9278023 14.0472014 50.9595121 14.3811942 50.9741475 14.7393947 50.9887832 15.0975952 51.0058575 15.4751523 51.0253717 15.8720773 51.2790539 15.0782274 51.5376106 14.3666775 51.8010497 13.7374063L57.0698066.856772697C57.1576196.64378859 57.3259255.447749338 57.5747292.268649066 57.8235329.0895487932 58.1040427 0 58.4162668 0L59.2943929 0C59.6261312 0 59.8944449.0798678427 60.0993419.239605924 60.3042391.399344005 60.4310782.605064205 60.4798632.856772697L62.5873661 13.7374063C62.6361511 14.0472014 62.6824961 14.3763537 62.7264026 14.7248731 62.7703091 15.0733926 62.8020191 15.4364282 62.821533 15.813991 62.92886 15.4364282 63.0361856 15.0709723 63.1435126 14.7176124 63.2508398 14.3642523 63.3630435 14.0375203 63.4801276 13.7374063L68.5000821.856772697C68.5878951.634107493 68.7610795.435648006 69.0196401.261388281 69.2782008.0871285556 69.5635891 0 69.8758132 0L72.8760776 0 64.2265348 20.9981919 60.7872073 20.9981919 58.4016314 6.44757758C58.3723603 6.26363677 58.3406505 6.06275704 58.306501 5.84493239 58.2723514 5.62710773 58.2455201 5.39718515 58.2260062 5.15515775 58.1479501 5.39718515 58.067456 5.62710773 57.9845214 5.84493239 57.9015868 6.06275704 57.8210927 6.26363677 57.7430368 6.44757758L51.7571434 20.9981919 48.3324514 20.9981919 44.8784885 0zM76.4867759 12.7208963L75.452593 20.9981919 71.6408899 20.9981919 74.2558956 0 80.3280271 0C81.5592037 0 82.6130748.128272596 83.4896724.384821635 84.36627.641370676 85.0852663.999565846 85.6466828 1.4594179 86.2080992 1.91926995 86.6217682 2.4686639 86.8877023 3.10761623 87.1536364 3.74656855 87.2866014 4.44843746 87.2866014 5.21324404 87.2866014 6.02645608 87.1708727 6.78883094 86.9394116 7.50039149 86.7079502 8.21195203 86.3755377 8.85815549 85.9421636 9.43902124 85.5087895 10.019887 84.9769293 10.5281369 84.3465668 10.9637862 83.7162046 11.3994355 83.002133 11.7382688 82.2043307 11.9802962 82.4308671 12.1158315 82.6377017 12.2804077 82.8248405 12.4740296 83.0119792 12.6676515 83.1744921 12.8999943 83.3123839 13.171065L87.124087 20.9981919 83.6817349 20.9981919C83.3567044 20.9981919 83.0833874 20.9328454 82.8617757 20.8021507 82.640164 20.6714559 82.4751886 20.4850976 82.3668452 20.2430702L79.234748 13.4324533C79.116555 13.1807448 78.9712786 12.999227 78.7989139 12.8878944 78.6265492 12.7765618 78.3581566 12.7208963 77.9937285 12.7208963L76.4867759 12.7208963zM77.7277957 2.90431423L76.8265791 10.0344056 79.0426855 10.0344056C79.8109396 10.0344056 80.4733024 9.92549497 81.0297942 9.70767031 81.586286 9.48984565 82.0442767 9.18973617 82.4037802 8.8073329 82.7632838 8.42492961 83.0316762 7.97718565 83.2089656 7.46408756 83.386255 6.95098949 83.4748983 6.39917529 83.4748983 5.80862845 83.4748983 4.89860545 83.1892697 4.18705558 82.6180039 3.67395749 82.046738 3.16085942 81.165229 2.90431423 79.9734501 2.90431423L77.7277957 2.90431423zM96.2498367 12.8225473L95.218001 20.9981919 91.3854683 20.9981919 92.417304 12.8080257 86.8748722 0 90.2799301 0C90.6140499 0 90.8695496.0798678427 91.0464366.239605924 91.2233236.399344005 91.3609004.605064205 91.4591709.856772697L94.2156464 8.11755826C94.3532251 8.46607772 94.4637777 8.80733123 94.5473077 9.14132903 94.6308377 9.47532685 94.7020827 9.80205892 94.7610452 10.1215351 94.918278 9.80205892 95.0877922 9.47774708 95.2695927 9.14858982 95.4513934 8.81943255 95.6553017 8.47575881 95.881324 8.11755826L100.465623.856772697C100.603201.634107493 100.782543.435648006 101.003651.261388281 101.22476.0871285556 101.497457 0 101.82175 0L104.990959 0 96.2498367 12.8225473z"/>
  </g>
</svg>
